<svg width="36" height="36" viewBox="0 0 36 36" fill="none" xmlns="http://www.w3.org/2000/svg">
<g filter="url(#filter0_d_1_10)">
<path d="M2 4C2 2.89543 2.89543 2 4 2H30C31.1046 2 32 2.89543 32 4V30C32 31.1046 31.1046 32 30 32H4C2.89543 32 2 31.1046 2 30V4Z" fill="white"/>
<path d="M24.5 2.00586L20.6094 2C16.2383 2 13.4141 4.90039 13.4141 9.38281V12.7871H9.5C9.16016 12.7871 8.89062 13.0625 8.89062 13.3965V18.3301C8.89062 18.6699 9.16602 18.9395 9.5 18.9395H13.4141V31.3848C13.4141 31.7246 13.6895 31.9941 14.0234 31.9941H19.1269C19.4668 31.9941 19.7363 31.7188 19.7363 31.3848V18.9453H24.3125C24.6523 18.9453 24.9219 18.6699 24.9219 18.3359V13.4023C24.9219 13.2383 24.8574 13.0859 24.7402 12.9688C24.623 12.8516 24.4707 12.7871 24.3066 12.7871H19.7305V9.9043C19.7305 8.51562 20.0586 7.8125 21.8691 7.8125H24.4883C24.8281 7.8125 25.0976 7.53711 25.0976 7.20312V2.61523C25.1094 2.28125 24.834 2.00586 24.5 2.00586Z" fill="black"/>
</g>
<defs>
<filter id="filter0_d_1_10" x="0" y="0" width="36" height="36" filterUnits="userSpaceOnUse" color-interpolation-filters="sRGB">
<feFlood flood-opacity="0" result="BackgroundImageFix"/>
<feColorMatrix in="SourceAlpha" type="matrix" values="0 0 0 0 0 0 0 0 0 0 0 0 0 0 0 0 0 0 127 0" result="hardAlpha"/>
<feOffset dx="1" dy="1"/>
<feGaussianBlur stdDeviation="1.5"/>
<feColorMatrix type="matrix" values="0 0 0 0 0.756863 0 0 0 0 0.803922 0 0 0 0 0.858824 0 0 0 1 0"/>
<feBlend mode="normal" in2="BackgroundImageFix" result="effect1_dropShadow_1_10"/>
<feBlend mode="normal" in="SourceGraphic" in2="effect1_dropShadow_1_10" result="shape"/>
</filter>
</defs>
</svg>
